<mxfile host="Electron" modified="2024-03-20T16:49:11.830Z" agent="Mozilla/5.0 (Windows NT 10.0; Win64; x64) AppleWebKit/537.36 (KHTML, like Gecko) draw.io/23.1.5 Chrome/120.0.6099.109 Electron/28.1.0 Safari/537.36" etag="K1GMqWqo33DmvJRunx-T" version="23.1.5" type="device">
  <diagram name="Pagina-1" id="-rFbB4Ogn-lYXQoVHxbQ">
    <mxGraphModel dx="1567" dy="666" grid="1" gridSize="10" guides="1" tooltips="1" connect="1" arrows="1" fold="1" page="0" pageScale="1" pageWidth="827" pageHeight="1169" math="0" shadow="0">
      <root>
        <mxCell id="0" />
        <mxCell id="1" parent="0" />
        <mxCell id="zhBznY4mTrD-_VA5wNre-14" style="edgeStyle=orthogonalEdgeStyle;rounded=0;orthogonalLoop=1;jettySize=auto;html=1;entryX=0;entryY=0.5;entryDx=0;entryDy=0;" edge="1" parent="1" source="zhBznY4mTrD-_VA5wNre-1" target="zhBznY4mTrD-_VA5wNre-7">
          <mxGeometry relative="1" as="geometry" />
        </mxCell>
        <mxCell id="zhBznY4mTrD-_VA5wNre-15" style="edgeStyle=orthogonalEdgeStyle;rounded=0;orthogonalLoop=1;jettySize=auto;html=1;entryX=0;entryY=0.5;entryDx=0;entryDy=0;" edge="1" parent="1" source="zhBznY4mTrD-_VA5wNre-1" target="zhBznY4mTrD-_VA5wNre-9">
          <mxGeometry relative="1" as="geometry" />
        </mxCell>
        <mxCell id="zhBznY4mTrD-_VA5wNre-16" style="edgeStyle=orthogonalEdgeStyle;rounded=0;orthogonalLoop=1;jettySize=auto;html=1;entryX=0;entryY=0.5;entryDx=0;entryDy=0;" edge="1" parent="1" source="zhBznY4mTrD-_VA5wNre-1" target="zhBznY4mTrD-_VA5wNre-11">
          <mxGeometry relative="1" as="geometry" />
        </mxCell>
        <mxCell id="zhBznY4mTrD-_VA5wNre-33" style="edgeStyle=orthogonalEdgeStyle;rounded=0;orthogonalLoop=1;jettySize=auto;html=1;entryX=0.5;entryY=1;entryDx=0;entryDy=0;endArrow=doubleBlock;endFill=1;" edge="1" parent="1" source="zhBznY4mTrD-_VA5wNre-1" target="zhBznY4mTrD-_VA5wNre-29">
          <mxGeometry relative="1" as="geometry" />
        </mxCell>
        <mxCell id="zhBznY4mTrD-_VA5wNre-1" value="Utenti" style="whiteSpace=wrap;html=1;" vertex="1" parent="1">
          <mxGeometry x="500" y="460" width="120" height="60" as="geometry" />
        </mxCell>
        <mxCell id="zhBznY4mTrD-_VA5wNre-2" value="" style="rhombus;whiteSpace=wrap;html=1;" vertex="1" parent="1">
          <mxGeometry x="330" y="170" width="80" height="80" as="geometry" />
        </mxCell>
        <mxCell id="zhBznY4mTrD-_VA5wNre-26" style="edgeStyle=orthogonalEdgeStyle;rounded=0;orthogonalLoop=1;jettySize=auto;html=1;entryX=0;entryY=0.5;entryDx=0;entryDy=0;" edge="1" parent="1" source="zhBznY4mTrD-_VA5wNre-3" target="zhBznY4mTrD-_VA5wNre-19">
          <mxGeometry relative="1" as="geometry" />
        </mxCell>
        <mxCell id="zhBznY4mTrD-_VA5wNre-27" style="edgeStyle=orthogonalEdgeStyle;rounded=0;orthogonalLoop=1;jettySize=auto;html=1;entryX=0;entryY=0.5;entryDx=0;entryDy=0;" edge="1" parent="1" source="zhBznY4mTrD-_VA5wNre-3" target="zhBznY4mTrD-_VA5wNre-21">
          <mxGeometry relative="1" as="geometry" />
        </mxCell>
        <mxCell id="zhBznY4mTrD-_VA5wNre-28" style="edgeStyle=orthogonalEdgeStyle;rounded=0;orthogonalLoop=1;jettySize=auto;html=1;entryX=0;entryY=0.5;entryDx=0;entryDy=0;" edge="1" parent="1" source="zhBznY4mTrD-_VA5wNre-3" target="zhBznY4mTrD-_VA5wNre-23">
          <mxGeometry relative="1" as="geometry" />
        </mxCell>
        <mxCell id="zhBznY4mTrD-_VA5wNre-30" style="edgeStyle=orthogonalEdgeStyle;rounded=0;orthogonalLoop=1;jettySize=auto;html=1;entryX=0;entryY=0.5;entryDx=0;entryDy=0;" edge="1" parent="1" source="zhBznY4mTrD-_VA5wNre-3" target="zhBznY4mTrD-_VA5wNre-2">
          <mxGeometry relative="1" as="geometry" />
        </mxCell>
        <mxCell id="zhBznY4mTrD-_VA5wNre-3" value="Libri" style="whiteSpace=wrap;html=1;" vertex="1" parent="1">
          <mxGeometry x="112.5" y="180" width="120" height="60" as="geometry" />
        </mxCell>
        <mxCell id="zhBznY4mTrD-_VA5wNre-31" style="edgeStyle=orthogonalEdgeStyle;rounded=0;orthogonalLoop=1;jettySize=auto;html=1;entryX=1;entryY=0.5;entryDx=0;entryDy=0;endArrow=doubleBlock;endFill=1;" edge="1" parent="1" source="zhBznY4mTrD-_VA5wNre-4" target="zhBznY4mTrD-_VA5wNre-2">
          <mxGeometry relative="1" as="geometry" />
        </mxCell>
        <mxCell id="zhBznY4mTrD-_VA5wNre-32" style="edgeStyle=orthogonalEdgeStyle;rounded=0;orthogonalLoop=1;jettySize=auto;html=1;entryX=0.5;entryY=0;entryDx=0;entryDy=0;" edge="1" parent="1" source="zhBznY4mTrD-_VA5wNre-4" target="zhBznY4mTrD-_VA5wNre-29">
          <mxGeometry relative="1" as="geometry" />
        </mxCell>
        <mxCell id="zhBznY4mTrD-_VA5wNre-45" style="edgeStyle=orthogonalEdgeStyle;rounded=0;orthogonalLoop=1;jettySize=auto;html=1;exitX=0.75;exitY=1;exitDx=0;exitDy=0;entryX=0;entryY=0.5;entryDx=0;entryDy=0;" edge="1" parent="1" source="zhBznY4mTrD-_VA5wNre-4" target="zhBznY4mTrD-_VA5wNre-36">
          <mxGeometry relative="1" as="geometry">
            <Array as="points">
              <mxPoint x="590" y="270" />
            </Array>
          </mxGeometry>
        </mxCell>
        <mxCell id="zhBznY4mTrD-_VA5wNre-46" style="edgeStyle=orthogonalEdgeStyle;rounded=0;orthogonalLoop=1;jettySize=auto;html=1;exitX=0.75;exitY=1;exitDx=0;exitDy=0;entryX=0;entryY=0.5;entryDx=0;entryDy=0;" edge="1" parent="1" source="zhBznY4mTrD-_VA5wNre-4" target="zhBznY4mTrD-_VA5wNre-38">
          <mxGeometry relative="1" as="geometry">
            <Array as="points">
              <mxPoint x="590" y="295" />
            </Array>
          </mxGeometry>
        </mxCell>
        <mxCell id="zhBznY4mTrD-_VA5wNre-4" value="Prestito" style="whiteSpace=wrap;html=1;" vertex="1" parent="1">
          <mxGeometry x="500" y="180" width="120" height="60" as="geometry" />
        </mxCell>
        <mxCell id="zhBznY4mTrD-_VA5wNre-7" value="" style="ellipse;whiteSpace=wrap;html=1;" vertex="1" parent="1">
          <mxGeometry x="600" y="570" width="20" height="20" as="geometry" />
        </mxCell>
        <mxCell id="zhBznY4mTrD-_VA5wNre-8" value="Nome" style="text;html=1;align=center;verticalAlign=middle;resizable=0;points=[];autosize=1;strokeColor=none;fillColor=none;" vertex="1" parent="1">
          <mxGeometry x="625" y="565" width="60" height="30" as="geometry" />
        </mxCell>
        <mxCell id="zhBznY4mTrD-_VA5wNre-9" value="" style="ellipse;whiteSpace=wrap;html=1;" vertex="1" parent="1">
          <mxGeometry x="600" y="600" width="20" height="20" as="geometry" />
        </mxCell>
        <mxCell id="zhBznY4mTrD-_VA5wNre-10" value="Cognome" style="text;html=1;align=center;verticalAlign=middle;resizable=0;points=[];autosize=1;strokeColor=none;fillColor=none;" vertex="1" parent="1">
          <mxGeometry x="620" y="595" width="80" height="30" as="geometry" />
        </mxCell>
        <mxCell id="zhBznY4mTrD-_VA5wNre-11" value="" style="ellipse;whiteSpace=wrap;html=1;" vertex="1" parent="1">
          <mxGeometry x="600" y="635" width="20" height="20" as="geometry" />
        </mxCell>
        <mxCell id="zhBznY4mTrD-_VA5wNre-12" value="Email" style="text;html=1;align=center;verticalAlign=middle;resizable=0;points=[];autosize=1;strokeColor=none;fillColor=none;" vertex="1" parent="1">
          <mxGeometry x="630" y="630" width="50" height="30" as="geometry" />
        </mxCell>
        <mxCell id="zhBznY4mTrD-_VA5wNre-19" value="" style="ellipse;whiteSpace=wrap;html=1;" vertex="1" parent="1">
          <mxGeometry x="210" y="265" width="20" height="20" as="geometry" />
        </mxCell>
        <mxCell id="zhBznY4mTrD-_VA5wNre-20" value="AnnoPub" style="text;html=1;align=center;verticalAlign=middle;resizable=0;points=[];autosize=1;strokeColor=none;fillColor=none;" vertex="1" parent="1">
          <mxGeometry x="230" y="290" width="70" height="30" as="geometry" />
        </mxCell>
        <mxCell id="zhBznY4mTrD-_VA5wNre-21" value="" style="ellipse;whiteSpace=wrap;html=1;" vertex="1" parent="1">
          <mxGeometry x="210" y="295" width="20" height="20" as="geometry" />
        </mxCell>
        <mxCell id="zhBznY4mTrD-_VA5wNre-22" value="Titolo" style="text;html=1;align=center;verticalAlign=middle;resizable=0;points=[];autosize=1;strokeColor=none;fillColor=none;" vertex="1" parent="1">
          <mxGeometry x="235" y="260" width="50" height="30" as="geometry" />
        </mxCell>
        <mxCell id="zhBznY4mTrD-_VA5wNre-23" value="" style="ellipse;whiteSpace=wrap;html=1;" vertex="1" parent="1">
          <mxGeometry x="210" y="325" width="20" height="20" as="geometry" />
        </mxCell>
        <mxCell id="zhBznY4mTrD-_VA5wNre-24" value="StatoDisp" style="text;html=1;align=center;verticalAlign=middle;resizable=0;points=[];autosize=1;strokeColor=none;fillColor=none;" vertex="1" parent="1">
          <mxGeometry x="225" y="320" width="80" height="30" as="geometry" />
        </mxCell>
        <mxCell id="zhBznY4mTrD-_VA5wNre-29" value="" style="rhombus;whiteSpace=wrap;html=1;" vertex="1" parent="1">
          <mxGeometry x="520" y="310" width="80" height="80" as="geometry" />
        </mxCell>
        <mxCell id="zhBznY4mTrD-_VA5wNre-36" value="" style="ellipse;whiteSpace=wrap;html=1;" vertex="1" parent="1">
          <mxGeometry x="602.5" y="260" width="20" height="20" as="geometry" />
        </mxCell>
        <mxCell id="zhBznY4mTrD-_VA5wNre-37" value="DataInizio" style="text;html=1;align=center;verticalAlign=middle;resizable=0;points=[];autosize=1;strokeColor=none;fillColor=none;" vertex="1" parent="1">
          <mxGeometry x="620" y="255" width="80" height="30" as="geometry" />
        </mxCell>
        <mxCell id="zhBznY4mTrD-_VA5wNre-38" value="" style="ellipse;whiteSpace=wrap;html=1;" vertex="1" parent="1">
          <mxGeometry x="602.5" y="285" width="20" height="20" as="geometry" />
        </mxCell>
        <mxCell id="zhBznY4mTrD-_VA5wNre-39" value="DataFine" style="text;html=1;align=center;verticalAlign=middle;resizable=0;points=[];autosize=1;strokeColor=none;fillColor=none;" vertex="1" parent="1">
          <mxGeometry x="625" y="280" width="70" height="30" as="geometry" />
        </mxCell>
        <mxCell id="zhBznY4mTrD-_VA5wNre-40" value="" style="endArrow=none;html=1;rounded=0;" edge="1" parent="1">
          <mxGeometry width="50" height="50" relative="1" as="geometry">
            <mxPoint x="545" y="440" as="sourcePoint" />
            <mxPoint x="575" y="440" as="targetPoint" />
          </mxGeometry>
        </mxCell>
        <mxCell id="zhBznY4mTrD-_VA5wNre-47" value="" style="edgeStyle=none;orthogonalLoop=1;jettySize=auto;html=1;rounded=0;endArrow=none;endFill=0;" edge="1" parent="1">
          <mxGeometry width="80" relative="1" as="geometry">
            <mxPoint x="480" y="240" as="sourcePoint" />
            <mxPoint x="480" y="180" as="targetPoint" />
            <Array as="points" />
          </mxGeometry>
        </mxCell>
      </root>
    </mxGraphModel>
  </diagram>
</mxfile>
